/* XPM */
static char *evince[] = {
/* columns rows colors chars-per-pixel */
"48 48 73 1",
"  c #000000",
". c #0C0C0C",
"X c #131212",
"o c #181817",
"O c #1D1C1C",
"+ c #212121",
"@ c gray17",
"# c #312F2D",
"$ c #333333",
"% c #383736",
"& c #393939",
"* c #41403C",
"= c #444443",
"- c #484643",
"; c #4A4845",
": c #4B4B48",
"> c #514F4B",
", c #53514D",
"< c #545351",
"1 c #595652",
"2 c #5C5A55",
"3 c #5B5B5A",
"4 c #61605C",
"5 c #636363",
"6 c #686661",
"7 c #6D6B66",
"8 c #6B6B6A",
"9 c #706D67",
"0 c #716F6A",
"q c #72716D",
"w c #727272",
"e c #7A7771",
"r c #7A7976",
"t c #7B7B7B",
"y c #807E77",
"u c #80807F",
"i c #848483",
"p c #8A8882",
"a c #8B8B8A",
"s c #918F87",
"d c #93918D",
"f c #939392",
"g c #989694",
"h c #999895",
"j c #9C9C9B",
"k c #A19F9A",
"l c #A1A09C",
"z c #A3A3A3",
"x c #A8A8A7",
"c c #ABABAA",
"v c #B0ABA2",
"b c #B2AFA8",
"n c #B5B2AC",
"m c #B4B4B4",
"M c #BEBCB5",
"N c #BBBBBA",
"B c #C3C1BD",
"V c #C3C3C2",
"C c #CBCBCB",
"Z c #D4D3D2",
"A c #D9D8D6",
"S c #DCDCDB",
"D c #E0E0DE",
"F c #E4E4E2",
"G c #E8E8E6",
"H c #ECECEB",
"J c #F0EEEC",
"K c #F0F0EE",
"L c #F3F3F3",
"P c #F8F7F6",
"I c #F8F8F7",
"U c #FDFDFD",
"Y c None",
/* pixels */
"YYYYYYYYYYYYYYYYYYYYYYYYYYYYYYYYYYYYYYYYYYYYYYYY",
"YYY                             +O     YYYYYYYYY",
"YYY  SUUUUUUUUUUUUUUUUUUUUUUUUUUICw     YYYYYYYY",
"YY   UUUUUUUUUUUUUUUUUUUUUUUUUUUULHV     YYYYYYY",
"YY   UUUUUUUUUUUUUUUUUUUUUUUUUUUIZUKN     YYYYYY",
"YY   UUUUUUUUUUUUUUUUUUUUUUUUUUUIZUUHc.    YYYYY",
"YY   UUUUUUUUUUUUUUUUUUUUUUUUUUUINUUUSz.    YYYY",
"YY   UUUUUUUUUUUUUUUUUUUUUUUUUUULmUIUUCz     YYY",
"YY   UUUUUUUUUUUUUUUUUUUUUUUUIUULcHVCmVCc    YYY",
"YY   UUUUUUUUUUUUUUUUUUUUUIUUUUULc<==;=3x     YY",
"YY   UUUUUUUUUUUUUUUUUUUUUUUUUIIKLVxzat8=     YY",
"YY   UUUUUUUUUUUUUUUUIUUUIIUIIUIIUIIGVCmt     YY",
"YY   UUUUUUUUUUUx            cUIIIIILLLHc     YY",
"YY   UUUUUUUUUUU VUUUIUUUUUIc ILLLLLLLLLm     YY",
"YY   UUUUUUUUUUU UFFFFFDSDSSm LILLLLLKKKm     YY",
"YY   UUUUUUUUUUU U85iG3lAFDFm LLLLLLKLKKm     YY",
"YY   UUUUUUUUUUU UHHHHKHHHHGN LLLLLLKKKKm     YY",
"YY   UUUUUUUUUUU Ua8jLfzHzaHV FKKKKKKKKKm     YY",
"YY   UUUUUUUUUUI UUUUUUIm8=@@&3fAGHHKKKHm     YY",
"YY   UUUUUUUUIUI UccGNN=<88a33t$+zSHHKHHm     YY",
"YY   UUUUUUUIUIU IDDSc@azCHUIKSf+XiCGHHHm     YY",
"YY   UUUUUUIUIx  Ui8a+wmIUUIUUUI3uXiCFHHm     YY",
"YY   UUUUIUIUx U Cxz:icUUUUUUUUUIVw@xZGGm     YY",
"YY   UUUUUIUx UGp, .=5IIUIIUUUUIGFa@8NFGm     YY",
"YY   UUUIUII UULUUU@umPPLLILHKHHCD57&zZFm     YY",
"YY   UUIUIII VaDIIL+=cZCCVVNNmmZAFAoXfVFm     YY",
"YY   UIUUIII z8LNAmXgGIUUUUUUUUUUUUA aNFm     YY",
"YY   UIIIIII h8FHPKXaFLUUUUIIILKKVGv amSm     YY",
"YY   UIUIIIL j723>-OumFZFAFCFCDCFthp imDm     YY",
"YY   UIIIILI fhu991&tbHPIIIIIPLLK1i7opmSm     YY",
"YY   UIIIILI rdgsye=X#*-::;-;*-*:<wo:fVFm     YY",
"YY   UILLILLk       X%>,1121,12234:OalCFm     YY",
"YY   UIILLLLK pnmMMb0.:57qq7146q74 2imAFm     YY",
"YY   ULLILLLKj         X        X   =cZDm     YY",
"YY   ULLLLKLKKFVNNNNci3oOqdlkk8OO3.  XwCc     YY",
"YY   ULLLLLKKKHHKHHHHSVd*X    X=5q3++  8j     YY",
"YY   ULLLKLKKKKKHKHHHGFCNat088qrgjd.5$  3     YY",
"YY   ULKLKKKKKKHHHHHHGGGSCNcxxcmVCCa r&       YY",
"YY   ULLKKKKKHHHHHHHGHGGFFSAAAAAASAcw 8+      YY",
"YY   UKKKKKKHKHHHHGGHGGGGGGFFFFFFFFAz8 8$     YY",
"YY   UKKKKKHHHHHHGHHGGGGGGGFFFFFFDFSZl5 r&     Y",
"YY   UKKKHKHHHHHHGGGGGFGFFFFFFFDDDDDSZz3 5O     ",
"YY   SHKHKHHHHHHGHGGGGGGGFFFDFFFDDDDDSZh=       ",
"YY   Vmmmmmmmmmmmmmmmmmmmmmmmmmmmmmmmmma5      Y",
"YY                                             Y",
"YYY                                           YY",
"YYY                                          YYY",
"YYYY                                        YYYY"
};
